<svg width="68" height="67" viewBox="0 0 68 67" fill="none" xmlns="http://www.w3.org/2000/svg">
<path d="M63.8754 40.206C64.1637 39.9229 64.6123 39.4796 64.7511 39.3301C66.1715 37.7974 67.0419 35.7572 67.0419 33.5035C67.0419 30.9774 65.9526 28.7077 64.2171 27.1375L64.2011 27.1268C64.0035 26.9346 63.7846 26.7156 63.587 26.5127C62.5084 25.4018 60.6822 23.2976 60.6822 21.0546C60.6822 18.5926 62.8875 16.2694 63.8807 15.3028C64.1691 15.0197 64.6176 14.5764 64.7565 14.4269C66.1768 12.8942 67.0472 10.854 67.0472 8.60031C67.0365 3.84718 63.1972 0.00195312 58.4555 0.00195312C53.7138 0.00195312 49.8691 3.84718 49.8691 8.58963C49.8691 10.8487 50.7449 12.8995 52.1706 14.4322C52.3041 14.5764 52.8754 15.1212 53.3293 15.5858C54.4079 16.6967 56.2342 18.8009 56.2342 21.0439C56.2342 23.5059 54.0288 25.8291 53.0356 26.7957C52.9128 26.9132 52.7633 27.0628 52.6191 27.207C52.6191 27.207 52.6138 27.207 52.6085 27.2123C50.9264 28.7824 49.8691 31.0201 49.8691 33.5035C49.8691 35.7626 50.7449 37.8134 52.1706 39.3461C52.3041 39.4903 52.8754 40.0351 53.3293 40.4997C54.4079 41.6105 56.2342 43.7147 56.2342 45.9578C56.2342 48.4198 54.0288 50.743 53.0356 51.7096C52.7473 51.9927 52.2987 52.4359 52.1599 52.5855C50.7395 54.1182 49.8691 56.1583 49.8691 58.4121C49.8691 63.1545 53.7138 66.9997 58.4555 66.9997C63.1972 66.9997 67.0419 63.1545 67.0419 58.4121C67.0419 56.153 66.1661 54.1022 64.7404 52.5694C64.6069 52.4253 64.0356 51.8805 63.5817 51.4159C62.5031 50.305 60.6769 48.2008 60.6769 45.9578C60.6769 43.4958 62.8822 41.1726 63.8754 40.206Z" fill="black"/>
<path d="M14.018 40.206C14.3063 39.9229 14.7549 39.4796 14.8937 39.3301C16.3141 37.7974 17.1844 35.7572 17.1844 33.5035C17.1844 30.9774 16.0951 28.7077 14.3597 27.1375L14.3437 27.1268C14.1461 26.9346 13.9272 26.7156 13.7296 26.5127C12.651 25.4018 10.8248 23.2976 10.8248 21.0546C10.8248 18.5926 13.0301 16.2694 14.0233 15.3028C14.3117 15.0197 14.7602 14.5764 14.899 14.4269C16.3194 12.8942 17.1898 10.854 17.1898 8.60031C17.1791 3.84718 13.3398 0.00195312 8.5981 0.00195312C3.85637 0.00195312 0.0117188 3.84718 0.0117188 8.58963C0.0117188 10.8487 0.887442 12.8995 2.31316 14.4322C2.44666 14.5764 3.01801 15.1212 3.47189 15.5858C4.55052 16.6967 6.37673 18.8009 6.37673 21.0439C6.37673 23.5059 4.17141 25.8291 3.17821 26.7957C3.05539 26.9132 2.90586 27.0628 2.76169 27.207C2.76169 27.207 2.75637 27.207 2.75103 27.2123C1.069 28.7824 0.0117188 31.0201 0.0117188 33.5035C0.0117188 35.7626 0.887442 37.8134 2.31316 39.3461C2.44666 39.4903 3.01801 40.0351 3.47189 40.4997C4.55052 41.6105 6.37673 43.7147 6.37673 45.9578C6.37673 48.4198 4.17141 50.743 3.17821 51.7096C2.88986 51.9927 2.44131 52.4359 2.30247 52.5855C0.882092 54.1182 0.0117188 56.1583 0.0117188 58.4121C0.0117188 63.1545 3.85637 66.9997 8.5981 66.9997C13.3398 66.9997 17.1844 63.1545 17.1844 58.4121C17.1844 56.153 16.3087 54.1022 14.883 52.5694C14.7495 52.4253 14.1782 51.8805 13.7243 51.4159C12.6456 50.305 10.8194 48.2008 10.8194 45.9578C10.8194 43.4958 13.0248 41.1726 14.018 40.206Z" fill="black"/>
<path d="M26.8429 38.9179C27.1259 39.2062 27.5692 39.6548 27.7187 39.7936C29.2515 41.214 31.2916 42.0843 33.5453 42.0843C36.0714 42.0843 38.3412 40.995 39.9113 39.2596L39.922 39.2436C40.1142 39.046 40.3332 38.8271 40.5362 38.6295C41.647 37.5509 43.7512 35.7247 45.9942 35.7247C48.4563 35.7247 50.7794 37.93 51.7461 38.9232C52.0291 39.2116 52.4724 39.6601 52.6219 39.7989C54.1547 41.2193 56.1948 42.0897 58.4485 42.0897C63.2016 42.079 67.0469 38.2397 67.0469 33.498C67.0469 28.7563 63.2016 24.9116 58.4592 24.9116C56.2001 24.9116 54.1493 25.7873 52.6166 27.2131C52.4724 27.3466 51.9276 27.9179 51.463 28.3718C50.3522 29.4504 48.248 31.2766 46.0049 31.2766C43.5429 31.2766 41.2198 29.0713 40.2531 28.0781C40.1356 27.9553 39.9861 27.8058 39.8419 27.6616C39.8419 27.6616 39.8419 27.6563 39.8365 27.6509C38.2664 25.9689 36.0287 24.9116 33.5453 24.9116C31.2862 24.9116 29.2355 25.7873 27.7027 27.2131C27.5585 27.3466 27.0138 27.9179 26.5491 28.3718C25.4383 29.4504 23.3341 31.2766 21.091 31.2766C18.629 31.2766 16.3059 29.0713 15.3392 28.0781C15.0562 27.7898 14.6129 27.3412 14.4634 27.2024C12.9306 25.782 10.8905 24.9116 8.63676 24.9116C3.89432 24.9116 0.0490929 28.7563 0.049093 33.498C0.049093 38.2397 3.89432 42.0843 8.63677 42.0843C10.8958 42.0843 12.9466 41.2086 14.4794 39.7829C14.6236 39.6494 15.1683 39.0781 15.633 38.6242C16.7438 37.5455 18.848 35.7193 21.091 35.7193C23.5531 35.7193 25.8762 37.9247 26.8429 38.9179Z" fill="black"/>
<path d="M26.8429 14.0062C27.1259 14.2946 27.5692 14.7431 27.7187 14.882C29.2515 16.3024 31.2916 17.1727 33.5453 17.1727C36.0714 17.1727 38.3412 16.0834 39.9113 14.348L39.922 14.332C40.1142 14.1344 40.3332 13.9155 40.5362 13.7179C41.647 12.6393 43.7512 10.8131 45.9942 10.8131C48.4563 10.8131 50.7794 13.0184 51.7461 14.0116C52.0291 14.2999 52.4724 14.7485 52.6219 14.8873C54.1547 16.3077 56.1948 17.1781 58.4485 17.1781C63.2016 17.1674 67.0469 13.3281 67.0469 8.58638C67.0469 3.84465 63.2016 4.58539e-08 58.4592 1.02407e-07C56.2001 1.29346e-07 54.1493 0.875723 52.6166 2.30145C52.4724 2.43494 51.9276 3.00629 51.463 3.46017C50.3522 4.53881 48.248 6.36501 46.0049 6.36501C43.5429 6.36501 41.2198 4.15969 40.2531 3.16649C40.1356 3.04367 39.9861 2.89414 39.8419 2.74997C39.8419 2.74997 39.8419 2.74465 39.8365 2.73931C38.2664 1.05728 36.0287 3.69888e-07 33.5453 3.99502e-07C31.2862 4.26441e-07 29.2355 0.875723 27.7027 2.30145C27.5585 2.43494 27.0138 3.00629 26.5491 3.46017C25.4383 4.53881 23.3341 6.36501 21.091 6.36501C18.629 6.36501 16.3059 4.15969 15.3392 3.16649C15.0562 2.87814 14.6129 2.42959 14.4634 2.29076C12.9306 0.870374 10.8905 6.69658e-07 8.63676 6.96534e-07C3.89432 7.53087e-07 0.0490929 3.84465 0.049093 8.58638C0.049093 13.3281 3.89432 17.1727 8.63677 17.1727C10.8958 17.1727 12.9466 16.297 14.4794 14.8713C14.6236 14.7378 15.1683 14.1664 15.633 13.7126C16.7438 12.6339 18.848 10.8077 21.091 10.8077C23.5531 10.8077 25.8762 13.013 26.8429 14.0062Z" fill="black"/>
<circle cx="33.6" cy="58.4154" r="8.58434" fill="#329FF7"/>
</svg>
