<svg width="32" height="33" viewBox="0 0 32 33" fill="none" xmlns="http://www.w3.org/2000/svg">
<g clip-path="url(#clip0_120_1588)">
<path d="M18.9012 31.2985C20.5033 29.6965 20.5033 27.099 18.9012 25.4969C17.2991 23.8948 14.7017 23.8948 13.0996 25.4969C11.4975 27.099 11.4975 29.6965 13.0996 31.2985C14.7017 32.9006 17.2991 32.9006 18.9012 31.2985Z" fill="#329FF7"/>
<path d="M30.4896 7.8024C30.5536 7.7416 30.6336 7.6616 30.704 7.5912C31.2256 7.1016 31.6192 6.4744 31.8304 5.7704C31.8304 5.7672 31.8304 5.764 31.8336 5.7576C31.84 5.732 31.8464 5.7064 31.856 5.684C31.856 5.6744 31.8592 5.668 31.8624 5.6584C31.8688 5.636 31.8752 5.6168 31.8784 5.5944C31.8784 5.5816 31.8848 5.572 31.888 5.5592C31.8912 5.54 31.8976 5.5208 31.9008 5.5016C31.904 5.4856 31.9072 5.4696 31.9104 5.4568C31.9136 5.4408 31.9168 5.4248 31.92 5.4088C31.9232 5.3896 31.9264 5.3736 31.9296 5.3544C31.9296 5.3416 31.936 5.3256 31.936 5.3128C31.9392 5.2904 31.9424 5.2712 31.9456 5.2488C31.9456 5.236 31.9488 5.2264 31.952 5.2136C31.9552 5.1912 31.9584 5.1656 31.9616 5.1432C31.9616 5.1336 31.9616 5.124 31.9648 5.1144C31.968 5.0888 31.9712 5.0632 31.9744 5.0376C31.9744 5.0312 31.9744 5.0216 31.9744 5.0152C31.9744 4.9864 31.9808 4.9576 31.9808 4.932C31.9808 4.9256 31.9808 4.9192 31.9808 4.9128C31.9808 4.8808 31.984 4.852 31.9872 4.82C31.9872 4.8168 31.9872 4.8136 31.9872 4.8104C31.9872 4.7752 31.9872 4.7432 31.9904 4.708C31.9904 4.6728 31.9904 4.6376 31.9904 4.6056C31.9904 3.4888 31.5424 2.4744 30.816 1.7352C30.8064 1.7256 30.7968 1.716 30.7872 1.7064C30.0544 0.9576 29.0304 0.5 27.8976 0.5C27.8272 0.5 27.7568 0.5 27.6896 0.5064C27.6896 0.5064 27.6832 0.5064 27.68 0.5064C27.648 0.5064 27.616 0.5096 27.584 0.5128C27.5776 0.5128 27.5744 0.5128 27.568 0.5128C27.5392 0.5128 27.5104 0.5192 27.4816 0.5192C27.4752 0.5192 27.4688 0.5192 27.4592 0.5192C27.4336 0.5192 27.4048 0.5256 27.3792 0.5288C27.3696 0.5288 27.36 0.5288 27.3504 0.532C27.3248 0.532 27.3024 0.5384 27.28 0.5416C27.2704 0.5416 27.2576 0.5448 27.248 0.548C27.2256 0.5512 27.2064 0.5544 27.184 0.5576C27.1712 0.5576 27.1584 0.564 27.1424 0.564C27.1232 0.5672 27.104 0.5704 27.088 0.5736C27.072 0.5736 27.056 0.58 27.04 0.5832C27.024 0.5864 27.008 0.5896 26.992 0.5928C26.9728 0.596 26.9536 0.6024 26.9376 0.6056C26.9248 0.6056 26.912 0.612 26.8992 0.6152C26.8768 0.6216 26.8576 0.6248 26.8352 0.6312C26.8256 0.6312 26.8192 0.6344 26.8096 0.6376C26.784 0.644 26.7616 0.6504 26.736 0.66C26.7328 0.66 26.7264 0.66 26.7232 0.6632C25.9968 0.8808 25.3536 1.2936 24.8576 1.8408C24.7616 1.9368 24.6528 2.0456 24.5536 2.1448C24.0224 2.66 23.0176 3.5336 21.9488 3.5336C20.88 3.5336 19.664 2.4808 19.2032 2.004C19.0688 1.8664 18.8576 1.652 18.7872 1.588C18.0544 0.916 17.0784 0.5 16.0032 0.5C14.928 0.5 13.712 1.0216 12.96 1.8472L12.9536 1.8536C12.8608 1.9464 12.7552 2.052 12.6592 2.1448C12.128 2.66 11.1232 3.5336 10.0544 3.5336C8.9856 3.5336 7.7696 2.4808 7.3088 2.004C7.248 1.9432 7.1744 1.8664 7.104 1.796C6.4992 1.1624 5.696 0.7112 4.7936 0.5576C4.7616 0.5512 4.7296 0.548 4.6976 0.5416C4.5024 0.5128 4.304 0.5 4.1024 0.5C1.8368 0.5 0 2.3368 0 4.6024C0 4.6728 0 4.7432 0.0064 4.8104C0.0064 4.8456 0.0096 4.8776 0.0128 4.9128C0.0128 4.9128 0.0128 4.9192 0.0128 4.9224C0.0128 4.9544 0.0192 4.9864 0.0224 5.0152C0.0224 5.0216 0.0224 5.0248 0.0224 5.0312C0.0224 5.06 0.0288 5.0888 0.032 5.1176C0.032 5.124 0.032 5.1304 0.032 5.14C0.0352 5.1656 0.0384 5.1912 0.0416 5.2168C0.0416 5.2264 0.0416 5.236 0.0448 5.2456C0.048 5.268 0.0512 5.2936 0.0576 5.316C0.0576 5.3288 0.0608 5.3384 0.064 5.3512C0.0672 5.3704 0.0704 5.3928 0.0768 5.412C0.0768 5.4248 0.0832 5.4408 0.0864 5.4536C0.0896 5.4696 0.0928 5.4888 0.0992 5.5048C0.1024 5.5208 0.1056 5.54 0.112 5.556C0.1152 5.5688 0.1184 5.5848 0.1216 5.5976C0.128 5.6168 0.1312 5.6392 0.1376 5.6584C0.1376 5.668 0.144 5.6776 0.1472 5.6872C0.1536 5.7096 0.16 5.7352 0.1664 5.7576C0.1664 5.764 0.1696 5.7672 0.1728 5.7736C0.1824 5.8024 0.1888 5.828 0.1984 5.8568C0.4224 6.5512 0.8256 7.1624 1.3504 7.6392C1.4464 7.7352 1.5552 7.8408 1.6512 7.94C2.1664 8.4712 3.04 9.476 3.04 10.5448C3.04 11.6136 1.9872 12.8296 1.5104 13.2904C1.4528 13.348 1.3792 13.4184 1.312 13.4856C0.6816 14.0712 0.2336 14.852 0.0704 15.7352C0.064 15.7704 0.0576 15.8056 0.0512 15.8408C0.0448 15.876 0.0416 15.9112 0.0352 15.9464C0.032 15.9816 0.0256 16.0168 0.0224 16.052C0.0224 16.052 0.0224 16.052 0.0224 16.0552C0.0192 16.0904 0.016 16.1256 0.0128 16.1608C0.0128 16.196 0.0064 16.2312 0.0064 16.2696C0.0032 16.3432 0 16.4136 0 16.4872C0 16.5576 0 16.6248 0.0064 16.6952C0.0064 16.6984 0.0064 16.7016 0.0064 16.7048C0.0064 16.7368 0.0096 16.7656 0.0128 16.7976C0.0128 16.804 0.0128 16.8104 0.0128 16.8136C0.0128 16.8424 0.016 16.8712 0.0192 16.8968C0.0192 16.9064 0.0192 16.9128 0.0192 16.9224C0.0192 16.948 0.0256 16.9736 0.0288 16.9992C0.0288 17.0088 0.0288 17.0216 0.032 17.0312C0.032 17.0536 0.0384 17.076 0.0416 17.0984C0.0416 17.1112 0.0448 17.124 0.048 17.1368C0.048 17.156 0.0544 17.1752 0.0576 17.1944C0.0576 17.2104 0.064 17.2264 0.0672 17.2424C0.0672 17.2584 0.0736 17.2744 0.0768 17.2904C0.08 17.3096 0.0832 17.3256 0.0896 17.3448C0.0896 17.3576 0.096 17.3704 0.0992 17.3832C0.1024 17.4056 0.1088 17.4248 0.1152 17.4472C0.1152 17.4568 0.1184 17.4664 0.1216 17.476C0.128 17.5016 0.1344 17.524 0.1408 17.5496C0.1408 17.556 0.1408 17.5592 0.144 17.5656C0.352 18.3336 0.7808 19.012 1.3536 19.5304C1.4496 19.6232 1.5552 19.732 1.6512 19.828C2.1664 20.3592 3.04 21.364 3.04 22.4328C3.04 23.5016 1.9872 24.7176 1.5104 25.1784C1.4496 25.2392 1.3728 25.3128 1.3024 25.3832C0.752 25.8952 0.3456 26.5576 0.1408 27.3032C0.1408 27.3064 0.1408 27.3128 0.1376 27.316C0.1312 27.3416 0.1248 27.364 0.1184 27.3896C0.1184 27.3992 0.1152 27.4088 0.112 27.4184C0.1056 27.4408 0.1024 27.46 0.096 27.4824C0.096 27.4952 0.0896 27.508 0.0864 27.5208C0.0832 27.54 0.08 27.556 0.0736 27.5752C0.0704 27.5912 0.0672 27.6072 0.064 27.6232C0.064 27.6392 0.0576 27.6552 0.0544 27.668C0.0512 27.6872 0.048 27.7064 0.0448 27.7256C0.0448 27.7384 0.0416 27.7512 0.0384 27.764C0.0352 27.7864 0.032 27.8088 0.0288 27.8312C0.0288 27.8408 0.0288 27.8536 0.0256 27.8632C0.0256 27.8888 0.0192 27.9112 0.016 27.9368C0.016 27.9464 0.016 27.9528 0.016 27.9624C0.016 27.9912 0.0096 28.0168 0.0096 28.0456C0.0096 28.052 0.0096 28.0584 0.0096 28.0648C0.0096 28.0936 0.0064 28.1256 0.0032 28.1576C0.0032 28.1608 0.0032 28.164 0.0032 28.1704C0.0032 28.2056 0.0032 28.2376 0 28.2728C0 28.308 0 28.3432 0 28.3752C0 30.5256 1.6544 32.2888 3.76 32.4616C3.872 32.4712 3.9872 32.4744 4.1024 32.4744C4.2176 32.4744 4.1824 32.4744 4.2208 32.4744C6.432 32.4104 8.2016 30.5992 8.2016 28.3752C8.2016 26.1512 8.2016 28.3656 8.2016 28.3592C8.2016 28.3304 8.2016 28.3016 8.2016 28.2696C8.2016 28.2632 8.2016 28.2568 8.2016 28.2504C8.2016 28.2216 8.2016 28.1928 8.1984 28.164C8.1984 28.1576 8.1984 28.148 8.1984 28.1416C8.1984 28.116 8.1984 28.0872 8.192 28.0616C8.192 28.052 8.192 28.0424 8.192 28.0328C8.192 28.0072 8.1888 27.9848 8.1856 27.9592C8.1856 27.9496 8.1856 27.9368 8.1824 27.9272C8.1824 27.9048 8.176 27.8824 8.176 27.86C8.176 27.8472 8.1728 27.8344 8.1696 27.8216C8.1696 27.8024 8.1632 27.78 8.16 27.7608C8.16 27.7448 8.1568 27.732 8.1536 27.716C8.1536 27.7 8.1472 27.6808 8.144 27.6648C8.144 27.6488 8.1376 27.6296 8.1344 27.6136C8.1344 27.6008 8.128 27.5848 8.1248 27.572C8.1216 27.5528 8.1152 27.5304 8.112 27.5112C8.112 27.5016 8.1088 27.4888 8.1056 27.4792C8.0992 27.4568 8.096 27.4344 8.0896 27.4088C8.0896 27.4024 8.0864 27.3928 8.0832 27.3864C8.0768 27.3608 8.0704 27.332 8.064 27.3064C8.064 27.3064 8.064 27.3 8.064 27.2968C7.856 26.5288 7.4272 25.8472 6.8544 25.3288C6.7584 25.236 6.6528 25.1304 6.5568 25.0312C6.0416 24.5 5.168 23.4952 5.168 22.4264C5.168 21.3576 6.2208 20.1416 6.6976 19.6808C6.7584 19.6232 6.832 19.5464 6.9056 19.476C6.9888 19.396 7.072 19.316 7.1488 19.2296C7.2448 19.1336 7.3536 19.0248 7.4528 18.9256C7.984 18.4104 8.9888 17.5368 10.0576 17.5368C11.1264 17.5368 12.3424 18.5896 12.8032 19.0664C12.8608 19.124 12.9312 19.1976 12.9984 19.2648C12.9984 19.2648 12.9984 19.2648 13.0016 19.268C13.7504 20.0712 14.8192 20.5768 16.0064 20.5768C17.1936 20.5768 18.064 20.1576 18.7968 19.476C18.8672 19.412 19.1264 19.14 19.3472 18.9224C19.8784 18.4072 20.8832 17.5336 21.952 17.5336C23.0208 17.5336 24.2368 18.5864 24.6976 19.0632C24.832 19.2008 25.0432 19.4152 25.1136 19.4792C25.1136 19.4792 25.1168 19.4792 25.12 19.4824C25.2224 19.5848 25.344 19.7032 25.4496 19.8152C25.9648 20.3464 26.8384 21.3512 26.8384 22.42C26.8384 23.4888 25.7856 24.7048 25.3088 25.1656C25.1712 25.3 24.9568 25.5112 24.8928 25.5816C24.2144 26.3144 23.7984 27.2904 23.7984 28.3656C23.7984 30.6312 25.6352 32.468 27.9008 32.468C30.1664 32.468 32.0032 30.6312 32.0032 28.3656C32.0032 26.1 31.584 26.308 30.9024 25.5752C30.8384 25.5048 30.5664 25.2456 30.3488 25.0248C29.8336 24.4936 28.96 23.4888 28.96 22.42C28.96 21.3512 30.0128 20.1352 30.4896 19.6744C30.5536 19.6136 30.6304 19.5368 30.704 19.4632C31.2288 18.9704 31.6256 18.3432 31.8336 17.6328C31.8432 17.604 31.8496 17.5784 31.856 17.5496C31.856 17.5432 31.856 17.54 31.8592 17.5336C31.8656 17.508 31.872 17.4856 31.8784 17.46C31.8784 17.4504 31.8816 17.4408 31.8848 17.4312C31.8912 17.4088 31.8944 17.3896 31.9008 17.3672C31.9008 17.3544 31.9072 17.3416 31.9104 17.3288C31.9136 17.3096 31.9168 17.2936 31.9232 17.2744C31.9264 17.2584 31.9296 17.2424 31.9328 17.2264C31.9328 17.2104 31.9392 17.1944 31.9424 17.1784C31.9456 17.1592 31.9488 17.14 31.952 17.1208C31.952 17.108 31.9552 17.0952 31.9584 17.0792C31.9616 17.0568 31.9648 17.0376 31.968 17.0152C31.968 17.0024 31.968 16.9928 31.9712 16.98C31.9712 16.9576 31.9776 16.932 31.9808 16.9096C31.9808 16.9 31.9808 16.8904 31.9808 16.8808C31.9808 16.8552 31.9872 16.8296 31.9872 16.8008C31.9872 16.7944 31.9872 16.7848 31.9872 16.7784C31.9872 16.7496 31.9904 16.7208 31.9936 16.692C31.9936 16.6856 31.9936 16.6824 31.9936 16.676C31.9936 16.644 31.9936 16.6088 31.9968 16.5768C31.9968 16.5768 31.9968 16.5736 31.9968 16.5704C31.9968 16.5352 31.9968 16.5 31.9968 16.468C31.9968 16.4296 31.9968 16.3944 31.9968 16.3592C31.9968 16.356 31.9968 16.3528 31.9968 16.3496C31.9968 16.3144 31.9968 16.2824 31.9936 16.2504C31.9936 16.244 31.9936 16.2408 31.9936 16.2344C31.9936 16.2024 31.9904 16.1704 31.9872 16.1416C31.9872 16.1352 31.9872 16.1288 31.9872 16.1224C31.9872 16.0904 31.9808 16.0616 31.9776 16.0328C31.9776 16.0264 31.9776 16.02 31.9776 16.0136C31.9744 15.9848 31.9712 15.9528 31.968 15.924C31.968 15.9176 31.968 15.9112 31.968 15.9048C31.9648 15.876 31.9584 15.844 31.9552 15.8152C31.9552 15.8088 31.9552 15.8024 31.9552 15.7992C31.9488 15.7704 31.9456 15.7384 31.9392 15.7096C31.9392 15.7032 31.9392 15.7 31.9392 15.6936C31.9328 15.6648 31.9264 15.6328 31.92 15.604C31.92 15.6008 31.92 15.5944 31.92 15.5912C31.9136 15.5592 31.9072 15.5304 31.8976 15.4984C31.8976 15.4952 31.8976 15.492 31.8976 15.4856C31.8912 15.4536 31.8816 15.4216 31.872 15.3896V15.3832C31.8624 15.3512 31.8528 15.316 31.8432 15.284C31.76 15.012 31.648 14.7496 31.5136 14.5032C31.5136 14.5032 31.5136 14.5 31.5104 14.4968C31.4944 14.468 31.4784 14.4424 31.4624 14.4136C31.4624 14.4072 31.456 14.404 31.4528 14.3976C31.44 14.372 31.424 14.3496 31.408 14.324C31.4048 14.3176 31.3984 14.3112 31.3952 14.3016C31.3824 14.2792 31.3664 14.2568 31.3536 14.2376C31.3472 14.228 31.344 14.2216 31.3376 14.212C31.3248 14.1928 31.312 14.1736 31.2992 14.1544C31.2928 14.1448 31.2864 14.1352 31.28 14.1256C31.2672 14.1064 31.2544 14.0904 31.2416 14.0712C31.2352 14.0616 31.2256 14.052 31.2192 14.0392C31.2064 14.0232 31.1936 14.0072 31.1808 13.9912C31.1712 13.9784 31.1648 13.9688 31.1552 13.956C31.1424 13.94 31.1328 13.9272 31.12 13.9112C31.1104 13.8984 31.1008 13.8856 31.0912 13.876C31.0816 13.8632 31.0688 13.8504 31.0592 13.8344C31.0496 13.8216 31.0368 13.8088 31.0272 13.796C31.0176 13.7832 31.008 13.7736 30.9984 13.7608C30.9856 13.748 30.9728 13.732 30.96 13.7192C30.9536 13.7096 30.944 13.7032 30.9344 13.6936C30.9184 13.6776 30.9056 13.6616 30.8896 13.6456C30.8864 13.6424 30.8832 13.6392 30.8768 13.6328C30.8096 13.5624 30.7424 13.4984 30.672 13.4312L30.6656 13.4248C30.5728 13.332 30.4672 13.2264 30.3744 13.1304C29.8592 12.5992 28.9856 11.5944 28.9856 10.5256C28.9856 9.4568 30.0384 8.2408 30.5152 7.78L30.4896 7.8024ZM25.3088 13.2968C25.2512 13.3544 25.1776 13.4248 25.1104 13.492C25.1104 13.492 25.1104 13.492 25.1072 13.4952C25.0208 13.5752 24.9408 13.6584 24.864 13.7416C24.768 13.8376 24.6592 13.9496 24.5568 14.0456C24.0256 14.5608 23.0208 15.4344 21.952 15.4344C20.8832 15.4344 19.6672 14.3816 19.2064 13.9048C19.072 13.7672 18.8608 13.5528 18.7904 13.4888C18.0576 12.8104 17.0816 12.3944 16.0064 12.3944C14.9312 12.3944 13.7152 12.916 12.9632 13.7416L12.9568 13.748C12.864 13.8408 12.7584 13.9464 12.6624 14.0392C12.1312 14.5544 11.1264 15.428 10.0576 15.428C8.9888 15.428 7.7728 14.3752 7.312 13.8984C7.2512 13.8376 7.1776 13.7608 7.104 13.6872C7.024 13.6008 6.9376 13.5176 6.8512 13.4376C6.7584 13.3448 6.6528 13.2392 6.56 13.1432C6.0448 12.612 5.1712 11.6072 5.1712 10.5384C5.1712 9.4696 6.224 8.2536 6.7008 7.7928C6.7616 7.732 6.8416 7.6552 6.912 7.5848C6.9952 7.508 7.072 7.428 7.1488 7.3448C7.2448 7.2488 7.3536 7.1368 7.4528 7.0408C7.984 6.5256 8.9888 5.652 10.0576 5.652C11.1264 5.652 12.3424 6.7048 12.8032 7.1816C12.8608 7.2392 12.9312 7.3128 12.9984 7.38C12.9984 7.38 12.9984 7.38 13.0016 7.3832C13.7504 8.1864 14.8192 8.692 16.0064 8.692C17.1936 8.692 18.064 8.2728 18.7968 7.5912C18.8672 7.5272 19.1264 7.2552 19.3472 7.0376C19.8784 6.5224 20.8832 5.6488 21.952 5.6488C23.0208 5.6488 24.2368 6.7016 24.6976 7.1784C24.832 7.316 25.0432 7.5304 25.1136 7.5944C25.216 7.6968 25.3376 7.8184 25.4464 7.9272C25.9616 8.4584 26.8352 9.4632 26.8352 10.532C26.8352 11.6008 25.7824 12.8168 25.3056 13.2776L25.3088 13.2968Z" fill="white"/>
</g>
<defs>
<clipPath id="clip0_120_1588">
<rect width="32" height="32" fill="white" transform="translate(0 0.5)"/>
</clipPath>
</defs>
</svg>
