<svg width="32" height="32" viewBox="0 0 32 32" fill="none" xmlns="http://www.w3.org/2000/svg">
<path d="M19.0741 18.9761C20.6343 17.4238 20.6343 14.907 19.0741 13.3547C17.5139 11.8023 14.9843 11.8024 13.4241 13.3547C11.8639 14.907 11.8639 17.4238 13.4241 18.9761C14.9843 20.5284 17.5139 20.5284 19.0741 18.9761Z" fill="#FF92FE"/>
<path d="M30.6353 18.9761C32.1955 17.4238 32.1955 14.907 30.6353 13.3547C29.0751 11.8023 26.5454 11.8024 24.9852 13.3547C23.425 14.907 23.425 17.4238 24.9852 18.9761C26.5454 20.5284 29.0751 20.5284 30.6353 18.9761Z" fill="#FF92FE"/>
<path d="M7.49034 16.0792V16.3937C7.39897 17.4094 6.86449 18.2989 6.07951 18.8757L6.07946 18.8756L6.07231 18.881L6.37557 19.2786C6.07231 18.881 6.07215 18.8812 6.07198 18.8813L6.07163 18.8816L6.07082 18.8822L6.06881 18.8837L6.06328 18.888L6.04638 18.9015C6.0326 18.9125 6.01389 18.9279 5.99095 18.9475C5.9451 18.9865 5.88212 19.0425 5.80767 19.1148C5.65919 19.2589 5.46278 19.47 5.26534 19.7429C4.8719 20.2866 4.45983 21.0965 4.44183 22.1194L4.44181 22.1206C4.42145 23.4614 5.16477 24.4392 5.65917 24.9461L5.70692 24.995L5.76606 25.0294C6.80651 25.6335 7.50078 26.7473 7.50078 28.0249C7.50078 29.9416 5.93826 31.4998 4.00561 31.4998C2.07297 31.4998 0.51044 29.9416 0.51044 28.0249C0.51044 26.804 1.14452 25.7298 2.10771 25.1112L2.14928 25.0845L2.18483 25.0501C2.44747 24.7965 2.79835 24.3981 3.07366 23.8738L3.07373 23.8738L3.07772 23.8659C3.08371 23.8539 3.09001 23.842 3.09904 23.8249L3.09976 23.8236C3.10804 23.8079 3.11884 23.7875 3.12992 23.7654C3.1472 23.7311 3.16282 23.6947 3.17203 23.6733L3.1737 23.6695L3.17409 23.6686C3.37941 23.1893 3.49934 22.6667 3.50333 22.111L3.50338 22.1033L3.5032 22.0956C3.47977 21.105 3.08686 20.3148 2.70393 19.7751H3.14925L1.92543 18.8727C1.0648 18.2381 0.506956 17.2241 0.506956 16.0827C0.506956 15.0223 0.985095 14.0755 1.74378 13.4313L1.77565 13.4086C1.79742 13.3932 1.81755 13.3774 1.82855 13.3688L1.8305 13.3673L1.84436 13.3565C1.84541 13.3557 1.84624 13.3551 1.84689 13.3546C1.84819 13.3536 1.84874 13.3532 1.84873 13.3532L1.86017 13.3451L1.87113 13.3363C2.14259 13.1195 2.99851 12.3759 3.35293 11.2111L3.37458 11.1399V11.1247C3.38861 11.0697 3.40091 11.0154 3.41119 10.97C3.41346 10.96 3.41563 10.9505 3.41769 10.9414L3.41786 10.9415L3.42044 10.9286C3.47192 10.6725 3.49986 10.4075 3.49986 10.1376H3.49994L3.49977 10.1283C3.48267 9.20454 3.14554 8.45428 2.78655 7.91259H2.99581L2.05042 7.04433C1.99836 6.99652 1.95453 6.95895 1.92259 6.93246C1.90661 6.91921 1.89355 6.90869 1.88386 6.90101L1.87191 6.89163L1.86793 6.88855L1.86645 6.88742L1.86584 6.88695L1.86557 6.88675L1.86554 6.88672C1.03386 6.25324 0.5 5.25848 0.5 4.13706C0.5 2.22036 2.06252 0.662109 3.99516 0.662109C5.92781 0.662109 7.49034 2.22037 7.49034 4.13706C7.49034 5.36243 6.84802 6.43706 5.87687 7.05691L5.83428 7.08409L5.79798 7.11926C5.36412 7.53956 4.45933 8.59662 4.4314 10.125L4.43138 10.1258C4.40698 11.5949 5.3016 12.6325 5.78924 13.0916L5.82418 13.1245L5.86474 13.1501C6.84498 13.7699 7.49034 14.8473 7.49034 16.0792Z" fill="white" stroke="white"/>
<path d="M16.0019 7.4499L15.6854 7.4499C14.6621 7.35888 13.7672 6.82589 13.1878 6.04529L13.1878 6.04524L13.1823 6.0381L12.7863 6.3433C13.1823 6.0381 13.1822 6.03794 13.1821 6.03777L13.1818 6.03742L13.1812 6.03661L13.1796 6.03461L13.1753 6.0291L13.1618 6.01227C13.1506 5.99855 13.1352 5.97992 13.1155 5.95708C13.0762 5.91145 13.02 5.84877 12.9473 5.7747C12.8024 5.62695 12.5903 5.43159 12.3162 5.23524C11.7699 4.84389 10.957 4.4347 9.93088 4.41682L9.92968 4.4168C8.585 4.39659 7.60348 5.13465 7.09356 5.62696L7.04424 5.67457L7.00956 5.7337C6.40308 6.76769 5.28302 7.46029 3.99553 7.46029C2.06289 7.46029 0.500364 5.90203 0.500364 3.98534C0.500364 2.06865 2.06289 0.510386 3.99553 0.510386C5.22582 0.510386 6.30621 1.14293 6.92744 2.10036L6.9544 2.1419L6.98898 2.17734C7.24395 2.43872 7.64422 2.78764 8.17077 3.0613L8.17073 3.06137L8.17865 3.06531C8.19068 3.0713 8.20272 3.07758 8.21988 3.08657L8.22136 3.08734C8.23708 3.09557 8.25751 3.10627 8.27957 3.11725C8.31398 3.13437 8.35036 3.14986 8.37188 3.15902L8.37576 3.16068L8.37667 3.16106C8.85777 3.36509 9.38206 3.48417 9.93949 3.48813L9.94712 3.48818L9.95475 3.488C10.9521 3.46465 11.7473 3.07169 12.2898 2.68949L12.2898 3.12866L13.1908 1.91914C13.8282 1.06341 14.8482 0.50692 15.9984 0.506921C17.0669 0.506921 18.0195 0.983872 18.6669 1.73845L18.6896 1.77008C18.7052 1.79178 18.721 1.81185 18.7297 1.82279L18.7312 1.82473L18.742 1.83851C18.7444 1.84163 18.7453 1.84284 18.7453 1.8428L18.7535 1.85422L18.7623 1.86517C18.9806 2.13574 19.7277 2.98663 20.8969 3.33879L20.9675 3.36003L20.9826 3.36003C21.038 3.37405 21.0928 3.38634 21.1387 3.39663C21.1488 3.39889 21.1584 3.40105 21.1675 3.40311L21.1675 3.40327L21.1802 3.40581C21.4372 3.45694 21.703 3.48467 21.9738 3.48467L21.9738 3.48476L21.983 3.48459C22.9131 3.46754 23.6682 3.13029 24.2126 2.77196L24.2126 2.97761L25.0792 2.04361C25.1272 1.99181 25.165 1.94819 25.1917 1.9164C25.205 1.90048 25.2156 1.88748 25.2233 1.87784L25.2327 1.86593L25.2358 1.86196L25.237 1.86049L25.2374 1.85988L25.2376 1.85961L25.2377 1.85957C25.874 1.03257 26.8748 0.5 28.0048 0.5C29.9375 0.5 31.5 2.05825 31.5 3.97494C31.5 5.89164 29.9375 7.4499 28.0048 7.4499C26.77 7.4499 25.6891 6.80914 25.0667 5.84383L25.0393 5.80126L25.0039 5.76506C24.581 5.33291 23.5196 4.43418 21.9863 4.40644L21.9855 4.40643C20.5121 4.3822 19.4703 5.27059 19.0083 5.75637L18.9752 5.79123L18.9493 5.83177C18.327 6.8061 17.2434 7.4499 16.0019 7.4499Z" fill="white" stroke="white"/>
<path d="M16.0019 31.4157L15.6854 31.4157C14.6621 31.3247 13.7672 30.7917 13.1878 30.0111L13.1878 30.0111L13.1823 30.0039L12.7863 30.3091C13.1823 30.0039 13.1822 30.0038 13.1821 30.0036L13.1818 30.0032L13.1812 30.0024L13.1796 30.0004L13.1753 29.9949L13.1618 29.9781C13.1506 29.9644 13.1352 29.9457 13.1155 29.9229C13.0762 29.8773 13.02 29.8146 12.9473 29.7405C12.8024 29.5928 12.5903 29.3974 12.3162 29.2011C11.7699 28.8097 10.957 28.4005 9.93088 28.3826L9.92968 28.3826C8.585 28.3624 7.60348 29.1005 7.09356 29.5928L7.04424 29.6404L7.00956 29.6995C6.40308 30.7335 5.28302 31.4261 3.99553 31.4261C2.06289 31.4261 0.500364 29.8679 0.500364 27.9512C0.500364 26.0345 2.06289 24.4762 3.99553 24.4762C5.22582 24.4762 6.30621 25.1088 6.92744 26.0662L6.9544 26.1077L6.98898 26.1432C7.24395 26.4045 7.64422 26.7535 8.17077 27.0271L8.17073 27.0272L8.17865 27.0311C8.19068 27.0371 8.20272 27.0434 8.21988 27.0524L8.22136 27.0532C8.23708 27.0614 8.25751 27.0721 8.27957 27.0831C8.31398 27.1002 8.35036 27.1157 8.37188 27.1248L8.37576 27.1265L8.37667 27.1269C8.85777 27.3309 9.38206 27.45 9.93949 27.4539L9.94712 27.454L9.95475 27.4538C10.9521 27.4305 11.7473 27.0375 12.2898 26.6553L12.2898 27.0945L13.1908 25.885C13.8282 25.0292 14.8482 24.4727 15.9984 24.4727C17.0669 24.4727 18.0195 24.9497 18.6669 25.7043L18.6896 25.7359C18.7052 25.7576 18.721 25.7777 18.7297 25.7886L18.7312 25.7906L18.742 25.8043C18.7444 25.8074 18.7453 25.8087 18.7453 25.8086L18.7535 25.82L18.7623 25.831C18.9806 26.1016 19.7277 26.9524 20.8969 27.3046L20.9675 27.3258L20.9826 27.3258C21.038 27.3399 21.0928 27.3522 21.1387 27.3625C21.1488 27.3647 21.1584 27.3669 21.1675 27.3689L21.1675 27.3691L21.1802 27.3716C21.4372 27.4228 21.703 27.4505 21.9738 27.4505L21.9738 27.4506L21.983 27.4504C22.9131 27.4334 23.6682 27.0961 24.2126 26.7378L24.2126 26.9434L25.0792 26.0094C25.1272 25.9576 25.165 25.914 25.1917 25.8822C25.205 25.8663 25.2156 25.8533 25.2233 25.8437L25.2327 25.8317L25.2358 25.8278L25.237 25.8263L25.2374 25.8257L25.2376 25.8254L25.2377 25.8254C25.874 24.9984 26.8748 24.4658 28.0048 24.4658C29.9375 24.4658 31.5 26.0241 31.5 27.9408C31.5 29.8575 29.9375 31.4157 28.0048 31.4157C26.77 31.4157 25.6891 30.775 25.0667 29.8097L25.0393 29.7671L25.0039 29.7309C24.581 29.2987 23.5196 28.4 21.9863 28.3723L21.9855 28.3722C20.5121 28.348 19.4703 29.2364 19.0083 29.7222L18.9752 29.757L18.9493 29.7976C18.327 30.7719 17.2434 31.4157 16.0019 31.4157Z" fill="white" stroke="white"/>
</svg>
