<svg width="67" height="65" viewBox="0 0 67 65" fill="none" xmlns="http://www.w3.org/2000/svg">
<path d="M37.5783 38.5118C40.7635 35.3138 40.7635 30.1286 37.5783 26.9305C34.3931 23.7325 29.2289 23.7325 26.0437 26.9305C22.8585 30.1286 22.8585 35.3138 26.0437 38.5118C29.2289 41.7099 34.3931 41.7099 37.5783 38.5118Z" fill="#FF92FE"/>
<path d="M61.2326 38.5118C64.4178 35.3138 64.4178 30.1286 61.2326 26.9305C58.0474 23.7325 52.8832 23.7325 49.698 26.9305C46.5128 30.1286 46.5128 35.3138 49.698 38.5118C52.8832 41.7099 58.0474 41.7099 61.2326 38.5118Z" fill="#FF92FE"/>
<path d="M55.4647 48.2886C53.3207 48.2886 51.3739 49.1254 49.917 50.486C49.777 50.6138 49.2617 51.1567 48.8227 51.5911C47.7666 52.6196 45.7689 54.3634 43.644 54.3634C41.519 54.3634 39.1014 52.2618 38.1853 51.31C38.0708 51.1887 37.9181 51.0418 37.7781 50.8948C36.7602 49.7961 35.4369 48.9785 33.9481 48.576C33.9481 48.576 33.9354 48.576 33.9291 48.576C33.8782 48.5633 33.8209 48.5505 33.77 48.5377C33.7573 48.5377 33.7446 48.5313 33.7255 48.5249C33.6809 48.5122 33.6364 48.5058 33.5855 48.493C33.5664 48.493 33.541 48.4866 33.5219 48.4802C33.4837 48.4738 33.4392 48.4611 33.401 48.4547C33.3756 48.4547 33.3437 48.4419 33.3183 48.4355C33.2865 48.4291 33.2483 48.4227 33.2165 48.4164C33.1847 48.4164 33.1465 48.4036 33.1147 48.3972C33.0829 48.3972 33.0511 48.3844 33.0256 48.3844C32.9875 48.3844 32.9493 48.3716 32.9111 48.3653C32.8857 48.3653 32.8602 48.3589 32.8348 48.3525C32.7902 48.3525 32.7457 48.3397 32.7012 48.3397C32.6757 48.3397 32.6566 48.3397 32.6312 48.3333C32.5867 48.3333 32.5358 48.3269 32.4912 48.3205C32.4721 48.3205 32.4531 48.3205 32.434 48.3205C32.3831 48.3205 32.3322 48.3141 32.2813 48.3078C32.2622 48.3078 32.2495 48.3078 32.2304 48.3078C32.1795 48.3078 32.1222 48.3078 32.0713 48.3078C32.0586 48.3078 32.0395 48.3078 32.0268 48.3078C31.9759 48.3078 31.9186 48.3078 31.8677 48.3078C31.855 48.3078 31.8359 48.3078 31.8232 48.3078C31.6769 48.3078 31.5242 48.3078 31.3779 48.3205C31.3079 48.3205 31.2315 48.3269 31.1615 48.3333C31.1615 48.3333 31.1552 48.3333 31.1488 48.3333C31.0788 48.3333 31.0089 48.3461 30.9389 48.3525C30.9389 48.3525 30.9325 48.3525 30.9261 48.3525C30.8562 48.3589 30.7862 48.3652 30.7226 48.378C30.7226 48.378 30.7162 48.378 30.7098 48.378C30.6399 48.3844 30.5699 48.3972 30.5062 48.41C30.5062 48.41 30.5062 48.41 30.4999 48.41C30.4299 48.4227 30.3599 48.4355 30.2899 48.4483C28.5085 48.7868 26.9307 49.7131 25.7601 51.0162C25.5756 51.2015 25.3657 51.4122 25.1748 51.5975C24.1187 52.6259 22.121 54.3698 19.9961 54.3698C17.8711 54.3698 15.4535 52.2682 14.5374 51.3164C14.4165 51.1951 14.2638 51.0354 14.1239 50.8948C13.9648 50.7288 13.8057 50.5627 13.634 50.4094C13.4431 50.2241 13.2332 50.0133 13.0423 49.8153C12.018 48.7549 10.2811 46.7491 10.2811 44.6156C10.2811 42.482 12.3743 40.0547 13.3222 39.1348C13.5958 38.8665 14.0221 38.4449 14.1493 38.3044C15.4981 36.8416 16.3251 34.8933 16.3251 32.747C16.3251 30.6007 15.2881 28.1733 13.6467 26.6721L13.634 26.6594C13.4495 26.4741 13.2395 26.2633 13.055 26.0717C12.0307 25.0113 10.2939 23.0055 10.2939 20.872C10.2939 18.7384 12.387 16.3111 13.335 15.3912C13.4558 15.2698 13.6149 15.1165 13.7549 14.976C13.9203 14.8227 14.073 14.663 14.2256 14.4969C14.4165 14.3053 14.6328 14.0817 14.83 13.8901C15.8862 12.8616 17.8839 11.1178 20.0088 11.1178C22.1337 11.1178 24.5513 13.2194 25.4675 14.1711C25.582 14.2861 25.722 14.433 25.8556 14.5672C25.8556 14.5672 25.8556 14.5672 25.8619 14.5736C27.3506 16.1769 29.4756 17.1862 31.8359 17.1862C34.1963 17.1862 35.9268 16.3494 37.3837 14.9888C37.5236 14.861 38.039 14.3181 38.478 13.8837C39.5341 12.8552 41.5318 11.1114 43.6567 11.1114C45.7816 11.1114 48.1992 13.213 49.1154 14.1648C49.3826 14.4394 49.8025 14.8674 49.9424 14.9952C51.3994 16.3494 53.3398 17.1798 55.4775 17.1798C59.9818 17.1798 63.6337 13.5132 63.6337 8.9906C63.6337 4.46801 59.9691 0.782227 55.4647 0.782227C50.9604 0.782227 51.3739 1.61903 49.917 2.97964C49.777 3.1074 49.2617 3.65037 48.8227 4.08474C47.7666 5.11318 45.7689 6.85706 43.644 6.85706C41.519 6.85706 39.1014 4.75546 38.1853 3.80368C37.9181 3.529 37.4982 3.10101 37.3582 2.97326C35.8949 1.61265 33.9545 0.782227 31.8168 0.782227C29.6792 0.782227 27.2616 1.82344 25.7665 3.47151L25.7538 3.48428C25.5693 3.66953 25.3593 3.88033 25.1684 4.06558C24.1123 5.09402 22.1146 6.8379 19.9897 6.8379C17.8648 6.8379 15.4472 4.7363 14.531 3.78451C14.4101 3.66314 14.2638 3.50983 14.1239 3.3693C12.9214 2.10451 11.3245 1.20382 9.53042 0.897208C9.4668 0.884432 9.40318 0.878044 9.33956 0.865268C8.95147 0.807778 8.55702 0.782227 8.15621 0.782227C3.65184 0.782227 0 4.44885 0 8.97144C0 9.11197 0 9.2525 0.0127242 9.38665C0.0127242 9.45691 0.0190863 9.52079 0.0254484 9.59106C0.0254484 9.59106 0.0254484 9.60383 0.0254484 9.61022C0.0254484 9.6741 0.0381726 9.73798 0.0445347 9.79547C0.0445347 9.80825 0.0445347 9.81463 0.0445347 9.82741C0.0445347 9.8849 0.0572589 9.94239 0.063621 9.99988C0.063621 10.0127 0.063621 10.0254 0.063621 10.0446C0.0699831 10.0957 0.0763451 10.1468 0.0827072 10.1979C0.0827072 10.2171 0.0827072 10.2362 0.0890693 10.2554C0.0954314 10.3001 0.101794 10.3512 0.114518 10.3959C0.114518 10.4215 0.12088 10.4406 0.127242 10.4662C0.133604 10.5045 0.139966 10.5492 0.15269 10.5876C0.15269 10.6131 0.165414 10.6451 0.171777 10.6706C0.178139 10.7025 0.184501 10.7409 0.197225 10.7728C0.203587 10.8047 0.209949 10.8431 0.222673 10.875C0.229035 10.9006 0.235398 10.9325 0.24176 10.9581C0.254484 10.9964 0.260846 11.0411 0.27357 11.0794C0.27357 11.0986 0.286294 11.1178 0.292656 11.1369C0.305381 11.1816 0.318105 11.2327 0.330829 11.2774C0.330829 11.2902 0.337191 11.2966 0.343553 11.3094C0.362639 11.3669 0.375364 11.418 0.39445 11.4755C0.839797 12.8616 1.64142 14.0817 2.6848 15.0335C2.87567 15.2251 3.09198 15.4359 3.28284 15.634C4.30714 16.6943 6.04399 18.7001 6.04399 20.8337C6.04399 22.9672 3.95086 25.3946 3.00291 26.3144C2.88839 26.4294 2.74206 26.5699 2.60846 26.7041C2.60846 26.7041 2.60846 26.7041 2.6021 26.7105C0.998849 28.2244 0 30.3579 0 32.7278C0 35.0977 0.833435 36.8352 2.18856 38.298C2.3158 38.4385 2.85658 38.956 3.2892 39.3967C4.3135 40.4571 6.05035 42.4629 6.05035 44.5964C6.05035 46.73 3.95722 49.1573 3.00927 50.0772C2.88839 50.1986 2.7357 50.3455 2.59573 50.486C1.50145 51.5081 0.693468 52.8303 0.286294 54.3187C0.286294 54.3251 0.286294 54.3379 0.279932 54.3443C0.267208 54.3954 0.254484 54.4401 0.24176 54.4912C0.24176 54.5104 0.235398 54.5295 0.229035 54.5487C0.216311 54.5934 0.209949 54.6317 0.197225 54.6764C0.197225 54.702 0.184501 54.7275 0.178139 54.7531C0.171777 54.7914 0.165414 54.8234 0.15269 54.8617C0.146328 54.8936 0.139966 54.9256 0.133604 54.9575C0.133604 54.9894 0.12088 55.0214 0.114518 55.0469C0.108156 55.0853 0.101794 55.1236 0.0954314 55.1619C0.0954314 55.1875 0.0890693 55.213 0.0827072 55.2386C0.0763451 55.2833 0.0699831 55.328 0.063621 55.3727C0.063621 55.3919 0.063621 55.4174 0.0572589 55.4366C0.0572589 55.4877 0.0445347 55.5324 0.0381726 55.5835C0.0381726 55.6027 0.0381726 55.6154 0.0381726 55.6346C0.0381726 55.6921 0.0254484 55.7432 0.0254484 55.8007C0.0254484 55.8135 0.0254484 55.8262 0.0254484 55.839C0.0254484 55.8965 0.0190863 55.9604 0.0127242 56.0243C0.0127242 56.0307 0.0127242 56.037 0.0127242 56.0498C0.0127242 56.1201 0.0127242 56.184 0.0063621 56.2542C0.0063621 56.3245 0.0063621 56.3948 0.0063621 56.4586C0.0063621 60.7513 3.29557 64.271 7.48182 64.6159C7.7045 64.6351 7.93353 64.6415 8.16257 64.6415C8.30254 64.6415 8.4425 64.6415 8.57611 64.6287C8.64609 64.6287 8.70971 64.6223 8.77969 64.6159H8.79242C8.85604 64.6159 8.91966 64.6031 8.97692 64.5968C8.98964 64.5968 8.996 64.5968 9.00873 64.5968C9.06599 64.5968 9.12324 64.584 9.1805 64.5776C9.19323 64.5776 9.20595 64.5776 9.22504 64.5776C9.27594 64.5712 9.32683 64.5648 9.37773 64.5584C9.39681 64.5584 9.4159 64.5584 9.43499 64.552C9.47952 64.5456 9.53042 64.5393 9.57495 64.5265C9.6004 64.5265 9.61949 64.5201 9.64494 64.5137C9.68311 64.5073 9.72764 64.5009 9.76582 64.4882C9.79127 64.4882 9.82308 64.4754 9.84852 64.469C9.88033 64.4626 9.91851 64.4562 9.95032 64.4434C9.98213 64.4371 10.0203 64.4307 10.0521 64.4179C10.0776 64.4115 10.1094 64.4051 10.1348 64.3987C10.173 64.386 10.2175 64.3796 10.2557 64.3668C10.2748 64.3668 10.2939 64.354 10.313 64.3476C10.3575 64.3348 10.4084 64.3221 10.4529 64.3093C10.4656 64.3093 10.472 64.3029 10.4847 64.2965C10.542 64.2774 10.5929 64.2646 10.6501 64.2454C12.0307 63.7983 13.2459 62.9934 14.1938 61.9458C14.3847 61.7542 14.5946 61.537 14.7919 61.3453C15.848 60.3169 17.8457 58.573 19.9706 58.573C22.0956 58.573 24.5132 60.6746 25.4293 61.6264C25.5438 61.7414 25.6838 61.8883 25.8174 62.0225C26.9816 63.2809 28.534 64.1688 30.2836 64.5009C30.3536 64.5137 30.4235 64.5265 30.4872 64.5393C30.5571 64.552 30.6208 64.5584 30.6907 64.5712C30.6907 64.5712 30.6907 64.5712 30.6971 64.5712C30.7671 64.5776 30.8307 64.5904 30.9007 64.5968C30.9007 64.5968 30.9007 64.5968 30.9071 64.5968C30.977 64.6031 31.047 64.6095 31.117 64.6159C31.117 64.6159 31.117 64.6159 31.1234 64.6159C31.1934 64.6159 31.2633 64.6287 31.3333 64.6287C31.4796 64.6351 31.6196 64.6415 31.7659 64.6415C31.9059 64.6415 32.0459 64.6415 32.1795 64.6287C32.1858 64.6287 32.1922 64.6287 32.1986 64.6287C32.2622 64.6287 32.3194 64.6223 32.3831 64.6159C32.3958 64.6159 32.4085 64.6159 32.4149 64.6159C32.4721 64.6159 32.5294 64.6095 32.5803 64.6031C32.5994 64.6031 32.6121 64.6031 32.6312 64.6031C32.6821 64.6031 32.733 64.5904 32.7839 64.584C32.803 64.584 32.8284 64.584 32.8475 64.5776C32.892 64.5776 32.9366 64.5648 32.9811 64.5584C33.0066 64.5584 33.032 64.552 33.0574 64.5456C33.0956 64.5456 33.1338 64.5329 33.172 64.5265C33.2038 64.5265 33.2356 64.5137 33.2674 64.5073C33.2992 64.5073 33.331 64.4945 33.3628 64.4882C33.401 64.4818 33.4392 64.4754 33.471 64.4626C33.4964 64.4626 33.5219 64.4498 33.5473 64.4434C33.5919 64.4307 33.63 64.4243 33.6746 64.4115C33.6937 64.4115 33.7127 64.4051 33.7255 64.3987C33.7764 64.386 33.8273 64.3732 33.8718 64.3604C33.8782 64.3604 33.8909 64.3604 33.8972 64.354C35.4241 63.9388 36.7729 63.0828 37.8036 61.9394C37.9881 61.7478 38.2044 61.537 38.3952 61.3453C39.4514 60.3169 41.4491 58.573 43.574 58.573C45.6989 58.573 48.1165 60.6746 49.0327 61.6264C49.2999 61.9011 49.7198 62.3291 49.8597 62.4568C51.3167 63.811 53.2571 64.6415 55.3948 64.6415C59.8991 64.6415 63.551 60.9748 63.551 56.4523C63.551 51.9297 59.8991 48.263 55.3948 48.263L55.4647 48.2886Z" fill="black"/>
</svg>
