<svg width="68" height="67" viewBox="0 0 68 67" fill="none" xmlns="http://www.w3.org/2000/svg">
<path d="M63.8637 40.206C64.152 39.9229 64.6006 39.4796 64.7394 39.3301C66.1598 37.7974 67.0301 35.7572 67.0301 33.5035C67.0301 30.9774 65.9408 28.7077 64.2054 27.1375L64.1894 27.1268C63.9918 26.9346 63.7729 26.7156 63.5753 26.5127C62.4967 25.4018 60.6705 23.2976 60.6705 21.0546C60.6705 18.5926 62.8758 16.2694 63.869 15.3028C64.1574 15.0197 64.6059 14.5764 64.7447 14.4269C66.1651 12.8942 67.0355 10.854 67.0355 8.60031C67.0248 3.84718 63.1855 0.00195312 58.4438 0.00195312C53.7021 0.00195312 49.8574 3.84718 49.8574 8.58963C49.8574 10.8487 50.7331 12.8995 52.1589 14.4322C52.2924 14.5764 52.8637 15.1212 53.3176 15.5858C54.3962 16.6967 56.2224 18.8009 56.2224 21.0439C56.2224 23.5059 54.0171 25.8291 53.0239 26.7957C52.9011 26.9132 52.7516 27.0628 52.6074 27.207C52.6074 27.207 52.6021 27.207 52.5967 27.2123C50.9147 28.7824 49.8574 31.0201 49.8574 33.5035C49.8574 35.7626 50.7331 37.8134 52.1589 39.3461C52.2924 39.4903 52.8637 40.0351 53.3176 40.4997C54.3962 41.6105 56.2224 43.7147 56.2224 45.9578C56.2224 48.4198 54.0171 50.743 53.0239 51.7096C52.7356 51.9927 52.287 52.4359 52.1482 52.5855C50.7278 54.1182 49.8574 56.1583 49.8574 58.4121C49.8574 63.1545 53.7021 66.9997 58.4438 66.9997C63.1855 66.9997 67.0301 63.1545 67.0301 58.4121C67.0301 56.153 66.1544 54.1022 64.7287 52.5694C64.5952 52.4253 64.0239 51.8805 63.57 51.4159C62.4913 50.305 60.6651 48.2008 60.6651 45.9578C60.6651 43.4958 62.8705 41.1726 63.8637 40.206Z" fill="black"/>
<path d="M14.0062 40.2065C14.2946 39.9234 14.7431 39.4801 14.882 39.3306C16.3024 37.7978 17.1727 35.7577 17.1727 33.504C17.1727 30.9779 16.0834 28.7082 14.348 27.138L14.332 27.1273C14.1344 26.9351 13.9155 26.7161 13.7179 26.5132C12.6393 25.4023 10.8131 23.2981 10.8131 21.0551C10.8131 18.5931 13.0184 16.2699 14.0116 15.3033C14.2999 15.0202 14.7485 14.5769 14.8873 14.4274C16.3077 12.8946 17.1781 10.8545 17.1781 8.6008C17.1674 3.84767 13.3281 0.00244141 8.58638 0.00244141C3.84465 0.00244141 0 3.84767 0 8.59012C0 10.8492 0.875723 12.9 2.30144 14.4327C2.43494 14.5769 3.00629 15.1217 3.46017 15.5863C4.5388 16.6971 6.36501 18.8013 6.36501 21.0444C6.36501 23.5064 4.15969 25.8296 3.16649 26.7962C3.04367 26.9137 2.89414 27.0632 2.74997 27.2074C2.74997 27.2074 2.74465 27.2074 2.73931 27.2128C1.05728 28.7829 0 31.0206 0 33.504C0 35.7631 0.875723 37.8139 2.30144 39.3466C2.43494 39.4908 3.00629 40.0356 3.46017 40.5002C4.5388 41.611 6.36501 43.7152 6.36501 45.9583C6.36501 48.4203 4.15969 50.7435 3.16649 51.7101C2.87814 51.9932 2.42959 52.4364 2.29076 52.586C0.870373 54.1187 0 56.1588 0 58.4126C0 63.155 3.84465 67.0002 8.58638 67.0002C13.3281 67.0002 17.1727 63.155 17.1727 58.4126C17.1727 56.1535 16.297 54.1027 14.8713 52.5699C14.7378 52.4257 14.1664 51.881 13.7126 51.4164C12.6339 50.3055 10.8077 48.2013 10.8077 45.9583C10.8077 43.4963 13.013 41.1731 14.0062 40.2065Z" fill="black"/>
<path d="M26.8321 38.9179C27.1152 39.2062 27.5584 39.6548 27.708 39.7936C29.2407 41.214 31.2808 42.0843 33.5346 42.0843C36.0607 42.0843 38.3304 40.995 39.9006 39.2596L39.9112 39.2436C40.1035 39.046 40.3225 38.8271 40.5254 38.6295C41.6363 37.5509 43.7405 35.7247 45.9835 35.7247C48.4455 35.7247 50.7687 37.93 51.7353 38.9232C52.0184 39.2116 52.4616 39.6601 52.6112 39.7989C54.1439 41.2193 56.184 42.0897 58.4378 42.0897C63.1909 42.079 67.0361 38.2397 67.0361 33.498C67.0361 28.7563 63.1909 24.9116 58.4485 24.9116C56.1894 24.9116 54.1386 25.7873 52.6058 27.2131C52.4616 27.3466 51.9169 27.9179 51.4523 28.3718C50.3414 29.4504 48.2372 31.2766 45.9942 31.2766C43.5322 31.2766 41.209 29.0713 40.2424 28.0781C40.1249 27.9553 39.9753 27.8058 39.8311 27.6616C39.8311 27.6616 39.8311 27.6563 39.8258 27.6509C38.2557 25.9689 36.0179 24.9116 33.5346 24.9116C31.2755 24.9116 29.2247 25.7873 27.692 27.2131C27.5478 27.3466 27.003 27.9179 26.5384 28.3718C25.4275 29.4504 23.3233 31.2766 21.0803 31.2766C18.6183 31.2766 16.2951 29.0713 15.3285 28.0781C15.0454 27.7898 14.6022 27.3412 14.4526 27.2024C12.9199 25.782 10.8798 24.9116 8.62602 24.9116C3.88357 24.9116 0.0383507 28.7563 0.0383508 33.498C0.0383508 38.2397 3.88357 42.0843 8.62602 42.0843C10.8851 42.0843 12.9359 41.2086 14.4686 39.7829C14.6128 39.6494 15.1576 39.0781 15.6222 38.6242C16.7331 37.5455 18.8372 35.7193 21.0803 35.7193C23.5423 35.7193 25.8655 37.9247 26.8321 38.9179Z" fill="black"/>
<circle cx="33.5882" cy="58.4154" r="8.58434" fill="#00EAC2"/>
<circle cx="33.5882" cy="8.58434" r="8.58434" fill="#00EAC2"/>
</svg>
