<svg width="32" height="32" viewBox="0 0 32 32" fill="none" xmlns="http://www.w3.org/2000/svg">
<path d="M7.48633 15.9983V16.3146C7.39493 17.3373 6.85987 18.232 6.07528 18.8118L6.07523 18.8117L6.06808 18.8172L6.37242 19.2139C6.06808 18.8172 6.06792 18.8173 6.06776 18.8175L6.0674 18.8177L6.06659 18.8184L6.06459 18.8199L6.05906 18.8242L6.04217 18.8377C6.0284 18.8489 6.0097 18.8643 5.98678 18.884C5.94096 18.9232 5.87802 18.9795 5.80364 19.0521C5.65525 19.197 5.45903 19.4091 5.26179 19.6832C4.8687 20.2294 4.45741 21.0426 4.43944 22.0693L4.43942 22.0705C4.41911 23.4161 5.16095 24.3979 5.65524 24.9075L5.70291 24.9567L5.76204 24.9912C6.80161 25.5982 7.49676 26.7184 7.49676 28.0048C7.49676 29.9353 5.93254 31.5 4.00373 31.5C2.07491 31.5 0.510678 29.9353 0.510678 28.0048C0.510678 26.7755 1.14556 25.6951 2.10805 25.0734L2.14961 25.0466L2.1851 25.0121C2.44758 24.7572 2.79808 24.3569 3.07303 23.8303L3.0731 23.8304L3.07707 23.8224C3.08308 23.8104 3.08939 23.7984 3.09841 23.7812C3.10678 23.7653 3.11786 23.7443 3.12924 23.7215L2.68198 23.498L3.12925 23.7215C3.14645 23.6871 3.16201 23.6507 3.17122 23.6292L3.17289 23.6253L3.17328 23.6243C3.37829 23.1431 3.49799 22.6185 3.50197 22.0608L3.50203 22.0531L3.50185 22.0455C3.47839 21.048 3.08383 20.2528 2.70011 19.7104H3.14178L1.92589 18.8088C1.06575 18.171 0.507197 17.151 0.507197 16.0017C0.507197 14.9341 0.985944 13.9816 1.74434 13.334L1.77618 13.3112C1.79794 13.2956 1.81807 13.2798 1.82906 13.2712L1.831 13.2696L1.84486 13.2588C1.84783 13.2565 1.8491 13.2556 1.84922 13.2555L1.84923 13.2555L1.86066 13.2473L1.87162 13.2385C2.14314 13.0204 2.998 12.2734 3.35187 11.1038L3.37329 11.033V11.0178C3.38736 10.9624 3.39969 10.9077 3.41001 10.8619C3.41228 10.8518 3.41444 10.8422 3.41651 10.8331L3.41668 10.8331L3.41923 10.8204C3.47063 10.5633 3.4985 10.2973 3.4985 10.0263H3.49859L3.49842 10.0171C3.48129 9.08697 3.14271 8.33189 2.78292 7.78744H2.98986L2.05078 6.92013C1.99876 6.87209 1.95496 6.83433 1.92305 6.80771C1.90707 6.79439 1.89402 6.78382 1.88434 6.7761L1.8724 6.76667L1.86841 6.76358L1.86694 6.76244L1.86633 6.76198L1.86606 6.76177L1.86603 6.76174C1.03479 6.12502 0.500244 5.12433 0.500244 3.99521C0.500244 2.06468 2.06446 0.5 3.99328 0.5C5.9221 0.5 7.48633 2.06468 7.48633 3.99521C7.48633 5.22904 6.84319 6.30991 5.87277 6.93278L5.83019 6.96011L5.79395 6.99542C5.36013 7.41805 4.45689 8.47965 4.42902 10.0138L4.429 10.0146C4.40465 11.4889 5.29756 12.5309 5.7852 12.9926L5.8201 13.0256L5.86065 13.0514C6.84015 13.6742 7.48633 14.7578 7.48633 15.9983ZM3.00199 22.0572C2.99851 22.5444 2.89415 23.0038 2.71328 23.4284L3.00199 22.0572ZM2.16776 7.78744C2.55146 8.27985 2.98045 9.04599 2.9985 10.0263C2.9985 10.263 2.97415 10.4961 2.92893 10.7223L2.16776 7.78744Z" fill="white" stroke="white"/>
<path d="M31.4863 15.9983V16.3146C31.3949 17.3373 30.8599 18.232 30.0753 18.8118L30.0752 18.8117L30.0681 18.8172L30.3724 19.2139C30.0681 18.8172 30.0679 18.8173 30.0678 18.8175L30.0674 18.8177L30.0666 18.8184L30.0646 18.8199L30.0591 18.8242L30.0422 18.8377C30.0284 18.8489 30.0097 18.8643 29.9868 18.884C29.941 18.9232 29.878 18.9795 29.8036 19.0521C29.6553 19.197 29.459 19.4091 29.2618 19.6832C28.8687 20.2294 28.4574 21.0426 28.4394 22.0693L28.4394 22.0705C28.4191 23.4161 29.161 24.3979 29.6552 24.9075L29.7029 24.9567L29.762 24.9912C30.8016 25.5982 31.4968 26.7184 31.4968 28.0048C31.4968 29.9353 29.9325 31.5 28.0037 31.5C26.0749 31.5 24.5107 29.9353 24.5107 28.0048C24.5107 26.7755 25.1456 25.6951 26.1081 25.0734L26.1496 25.0466L26.1851 25.0121C26.4476 24.7572 26.7981 24.3569 27.073 23.8303L27.0731 23.8304L27.0771 23.8224C27.0831 23.8104 27.0894 23.7984 27.0984 23.7812C27.1068 23.7653 27.1179 23.7443 27.1292 23.7215L26.682 23.498L27.1292 23.7215C27.1464 23.6871 27.162 23.6507 27.1712 23.6292L27.1729 23.6253L27.1733 23.6243C27.3783 23.1431 27.498 22.6185 27.502 22.0608L27.502 22.0531L27.5018 22.0455C27.4784 21.048 27.0838 20.2528 26.7001 19.7104H27.1418L25.9259 18.8088C25.0658 18.171 24.5072 17.151 24.5072 16.0017C24.5072 14.9341 24.9859 13.9816 25.7443 13.334L25.7762 13.3112C25.7979 13.2956 25.8181 13.2798 25.8291 13.2712L25.831 13.2696L25.8449 13.2588C25.8478 13.2565 25.8491 13.2556 25.8492 13.2555L25.8492 13.2555L25.8607 13.2473L25.8716 13.2385C26.1431 13.0204 26.998 12.2734 27.3519 11.1038L27.3733 11.033V11.0178C27.3874 10.9624 27.3997 10.9077 27.41 10.8619C27.4123 10.8518 27.4144 10.8422 27.4165 10.8331L27.4167 10.8331L27.4192 10.8204C27.4706 10.5633 27.4985 10.2973 27.4985 10.0263H27.4986L27.4984 10.0171C27.4813 9.08697 27.1427 8.33189 26.7829 7.78744H26.9899L26.0508 6.92013C25.9988 6.87209 25.955 6.83433 25.923 6.80771C25.9071 6.79439 25.894 6.78382 25.8843 6.7761L25.8724 6.76667L25.8684 6.76358L25.8669 6.76244L25.8663 6.76198L25.8661 6.76177L25.866 6.76174C25.0348 6.12502 24.5002 5.12433 24.5002 3.99521C24.5002 2.06468 26.0645 0.5 27.9933 0.5C29.9221 0.5 31.4863 2.06468 31.4863 3.99521C31.4863 5.22904 30.8432 6.30991 29.8728 6.93278L29.8302 6.96011L29.7939 6.99542C29.3601 7.41805 28.4569 8.47965 28.429 10.0138L28.429 10.0146C28.4046 11.4889 29.2976 12.5309 29.7852 12.9926L29.8201 13.0256L29.8607 13.0514C30.8401 13.6742 31.4863 14.7578 31.4863 15.9983ZM27.002 22.0572C26.9985 22.5444 26.8942 23.0038 26.7133 23.4284L27.002 22.0572ZM26.1678 7.78744C26.5515 8.27985 26.9805 9.04599 26.9985 10.0263C26.9985 10.263 26.9742 10.4961 26.9289 10.7223L26.1678 7.78744Z" fill="white" stroke="white"/>
<path d="M15.9553 19.3833L15.6396 19.3833C14.6188 19.293 13.7268 18.7643 13.1498 17.9911L13.1498 17.991L13.1443 17.9839L12.7491 18.2902C13.1443 17.9839 13.1442 17.9837 13.144 17.9836L13.1438 17.9832L13.1431 17.9824L13.1416 17.9804L13.1372 17.9749L13.1237 17.9582C13.1126 17.9446 13.0972 17.9261 13.0775 17.9034C13.0383 17.8581 12.9822 17.7959 12.9097 17.7224C12.7651 17.5758 12.5535 17.382 12.2801 17.1872C11.7352 16.799 10.9247 16.3933 9.90197 16.3756L9.90078 16.3756C8.56052 16.3556 7.58183 17.0872 7.07295 17.5758L7.02344 17.6234L6.98857 17.6825C6.38473 18.7064 5.26854 19.3936 3.98403 19.3936C2.05525 19.3936 0.500557 17.8477 0.500557 15.9519C0.500557 14.0562 2.05525 12.5103 3.98403 12.5103C5.21145 12.5103 6.28821 13.1379 6.9068 14.0861L6.9339 14.1276L6.96862 14.163C7.22302 14.4224 7.62227 14.7685 8.14736 15.0399L8.14732 15.04L8.15523 15.0439C8.16722 15.0498 8.17922 15.056 8.19632 15.0649L8.19769 15.0656C8.21337 15.0738 8.23379 15.0844 8.25585 15.0954L8.25586 15.0954C8.29015 15.1123 8.32639 15.1277 8.34786 15.1368L8.35177 15.1384L8.35267 15.1388C8.83235 15.3411 9.35499 15.4592 9.91059 15.4631L9.91818 15.4631L9.92577 15.463C10.9191 15.4398 11.7115 15.0509 12.2525 14.672L12.2525 15.1085L13.1527 13.9066C13.7876 13.059 14.8043 12.5069 15.9518 12.5069C17.0177 12.5069 17.9672 12.98 18.6121 13.7275L18.6346 13.7588C18.6502 13.7803 18.6661 13.8003 18.6747 13.8111L18.6762 13.8131L18.687 13.8267C18.6895 13.8299 18.6903 13.8311 18.6901 13.8308L18.6984 13.8423L18.7073 13.8532C18.9253 14.1219 19.6704 14.9658 20.8362 15.315L20.9064 15.3361L20.9215 15.3361C20.9768 15.35 21.0315 15.3622 21.0773 15.3724C21.0873 15.3746 21.0969 15.3768 21.106 15.3788L21.1059 15.379L21.1186 15.3815C21.3747 15.4322 21.6397 15.4597 21.9096 15.4597L21.9096 15.4597L21.9188 15.4596C22.8452 15.4427 23.5976 15.1088 24.1405 14.7537L24.1405 14.9582L25.0061 14.0303C25.054 13.9789 25.0918 13.9356 25.1183 13.9041C25.1316 13.8883 25.1422 13.8753 25.1499 13.8658L25.1594 13.8539L25.1625 13.85L25.1636 13.8485L25.1641 13.8479L25.1643 13.8476L25.1643 13.8476L25.1644 13.8475L25.1644 13.8474C25.7982 13.0284 26.7958 12.5 27.923 12.5C29.8518 12.5 31.4065 14.0459 31.4065 15.9416C31.4065 17.8374 29.8518 19.3833 27.923 19.3833C26.6911 19.3833 25.6139 18.7475 24.9941 17.7915L24.9665 17.749L24.9309 17.7128C24.5088 17.2839 23.4504 16.3928 21.9221 16.3653L21.9213 16.3653C20.4527 16.3413 19.4139 17.222 18.9528 17.7043L18.9195 17.7391L18.8934 17.7796C18.2737 18.7445 17.1938 19.3833 15.9553 19.3833Z" fill="white" stroke="white"/>
<path d="M18.5385 30.8391C20.0941 29.2997 20.0941 26.804 18.5385 25.2647C16.9829 23.7254 14.4607 23.7254 12.905 25.2647C11.3494 26.804 11.3494 29.2997 12.905 30.8391C14.4607 32.3784 16.9829 32.3784 18.5385 30.8391Z" fill="#00EAC2"/>
<path d="M18.5385 6.72881C20.0941 5.1895 20.0941 2.69379 18.5385 1.15448C16.9829 -0.384828 14.4607 -0.384826 12.905 1.15448C11.3494 2.69379 11.3494 5.1895 12.905 6.72881C14.4607 8.26812 16.9829 8.26812 18.5385 6.72881Z" fill="#00EAC2"/>
</svg>
